<mxfile host="app.diagrams.net" modified="2023-07-25T15:01:15.450Z" agent="Mozilla/5.0 (Windows NT 10.0; Win64; x64; rv:102.0) Gecko/20100101 Firefox/102.0" etag="CkSWME2bqtNeNoJD5iOY" version="21.6.5" type="github">
  <diagram id="C5RBs43oDa-KdzZeNtuy" name="Page-1">
    <mxGraphModel dx="1509" dy="1992" grid="1" gridSize="10" guides="1" tooltips="1" connect="1" arrows="1" fold="1" page="1" pageScale="1" pageWidth="827" pageHeight="1169" math="0" shadow="0">
      <root>
        <mxCell id="WIyWlLk6GJQsqaUBKTNV-0" />
        <mxCell id="WIyWlLk6GJQsqaUBKTNV-1" parent="WIyWlLk6GJQsqaUBKTNV-0" />
        <mxCell id="WIyWlLk6GJQsqaUBKTNV-2" value="" style="rounded=0;html=1;jettySize=auto;orthogonalLoop=1;fontSize=11;endArrow=block;endFill=0;endSize=8;strokeWidth=1;shadow=0;labelBackgroundColor=none;edgeStyle=orthogonalEdgeStyle;" parent="WIyWlLk6GJQsqaUBKTNV-1" source="WIyWlLk6GJQsqaUBKTNV-3" target="WIyWlLk6GJQsqaUBKTNV-6" edge="1">
          <mxGeometry relative="1" as="geometry" />
        </mxCell>
        <mxCell id="WIyWlLk6GJQsqaUBKTNV-3" value="MSISAC " style="rounded=1;whiteSpace=wrap;html=1;fontSize=12;glass=0;strokeWidth=1;shadow=0;fillColor=#d5e8d4;strokeColor=#82b366;" parent="WIyWlLk6GJQsqaUBKTNV-1" vertex="1">
          <mxGeometry x="270" y="-100" width="120" height="40" as="geometry" />
        </mxCell>
        <mxCell id="WIyWlLk6GJQsqaUBKTNV-4" value="No" style="rounded=0;html=1;jettySize=auto;orthogonalLoop=1;fontSize=11;endArrow=block;endFill=0;endSize=8;strokeWidth=1;shadow=0;labelBackgroundColor=none;edgeStyle=orthogonalEdgeStyle;" parent="WIyWlLk6GJQsqaUBKTNV-1" source="WIyWlLk6GJQsqaUBKTNV-6" target="WIyWlLk6GJQsqaUBKTNV-10" edge="1">
          <mxGeometry y="20" relative="1" as="geometry">
            <mxPoint as="offset" />
          </mxGeometry>
        </mxCell>
        <mxCell id="WIyWlLk6GJQsqaUBKTNV-5" value="yes" style="edgeStyle=orthogonalEdgeStyle;rounded=0;html=1;jettySize=auto;orthogonalLoop=1;fontSize=11;endArrow=block;endFill=0;endSize=8;strokeWidth=1;shadow=0;labelBackgroundColor=none;" parent="WIyWlLk6GJQsqaUBKTNV-1" source="WIyWlLk6GJQsqaUBKTNV-6" target="WIyWlLk6GJQsqaUBKTNV-7" edge="1">
          <mxGeometry y="10" relative="1" as="geometry">
            <mxPoint as="offset" />
          </mxGeometry>
        </mxCell>
        <mxCell id="WIyWlLk6GJQsqaUBKTNV-6" value="Advisory " style="rhombus;whiteSpace=wrap;html=1;shadow=0;fontFamily=Helvetica;fontSize=12;align=center;strokeWidth=1;spacing=6;spacingTop=-4;fillColor=#e1d5e7;strokeColor=#9673a6;" parent="WIyWlLk6GJQsqaUBKTNV-1" vertex="1">
          <mxGeometry x="280" y="130" width="100" height="80" as="geometry" />
        </mxCell>
        <mxCell id="SXRWceZyZXSWCd43gUxl-40" value="" style="edgeStyle=orthogonalEdgeStyle;rounded=0;orthogonalLoop=1;jettySize=auto;html=1;" parent="WIyWlLk6GJQsqaUBKTNV-1" source="WIyWlLk6GJQsqaUBKTNV-7" target="SXRWceZyZXSWCd43gUxl-9" edge="1">
          <mxGeometry relative="1" as="geometry" />
        </mxCell>
        <mxCell id="SXRWceZyZXSWCd43gUxl-41" value="" style="edgeStyle=orthogonalEdgeStyle;rounded=0;orthogonalLoop=1;jettySize=auto;html=1;" parent="WIyWlLk6GJQsqaUBKTNV-1" source="WIyWlLk6GJQsqaUBKTNV-7" target="SXRWceZyZXSWCd43gUxl-11" edge="1">
          <mxGeometry relative="1" as="geometry" />
        </mxCell>
        <mxCell id="SXRWceZyZXSWCd43gUxl-42" value="" style="edgeStyle=orthogonalEdgeStyle;rounded=0;orthogonalLoop=1;jettySize=auto;html=1;" parent="WIyWlLk6GJQsqaUBKTNV-1" source="WIyWlLk6GJQsqaUBKTNV-7" target="SXRWceZyZXSWCd43gUxl-13" edge="1">
          <mxGeometry relative="1" as="geometry" />
        </mxCell>
        <mxCell id="WIyWlLk6GJQsqaUBKTNV-7" value="TLP " style="rounded=1;whiteSpace=wrap;html=1;fontSize=12;glass=0;strokeWidth=2;shadow=0;shape=mxgraph.flowchart.decision;fillColor=#e1d5e7;strokeColor=#9673a6;" parent="WIyWlLk6GJQsqaUBKTNV-1" vertex="1">
          <mxGeometry x="500" y="20" width="100" height="92" as="geometry" />
        </mxCell>
        <mxCell id="WIyWlLk6GJQsqaUBKTNV-8" value="No" style="rounded=0;html=1;jettySize=auto;orthogonalLoop=1;fontSize=11;endArrow=block;endFill=0;endSize=8;strokeWidth=1;shadow=0;labelBackgroundColor=none;edgeStyle=orthogonalEdgeStyle;" parent="WIyWlLk6GJQsqaUBKTNV-1" source="WIyWlLk6GJQsqaUBKTNV-10" target="WIyWlLk6GJQsqaUBKTNV-11" edge="1">
          <mxGeometry x="0.3333" y="20" relative="1" as="geometry">
            <mxPoint as="offset" />
          </mxGeometry>
        </mxCell>
        <mxCell id="WIyWlLk6GJQsqaUBKTNV-9" value="Yes" style="edgeStyle=orthogonalEdgeStyle;rounded=0;html=1;jettySize=auto;orthogonalLoop=1;fontSize=11;endArrow=block;endFill=0;endSize=8;strokeWidth=1;shadow=0;labelBackgroundColor=none;" parent="WIyWlLk6GJQsqaUBKTNV-1" source="WIyWlLk6GJQsqaUBKTNV-10" target="WIyWlLk6GJQsqaUBKTNV-12" edge="1">
          <mxGeometry y="10" relative="1" as="geometry">
            <mxPoint as="offset" />
          </mxGeometry>
        </mxCell>
        <mxCell id="WIyWlLk6GJQsqaUBKTNV-10" value="&lt;div&gt;MS-ISAC &lt;br&gt;&lt;/div&gt;&lt;div&gt;SOC &lt;br&gt;&lt;/div&gt;" style="rhombus;whiteSpace=wrap;html=1;shadow=0;fontFamily=Helvetica;fontSize=12;align=center;strokeWidth=1;spacing=6;spacingTop=-4;fillColor=#e1d5e7;strokeColor=#9673a6;" parent="WIyWlLk6GJQsqaUBKTNV-1" vertex="1">
          <mxGeometry x="280" y="270" width="100" height="80" as="geometry" />
        </mxCell>
        <mxCell id="WIyWlLk6GJQsqaUBKTNV-11" value="&lt;div&gt;EI - ISAC &lt;br&gt;&lt;/div&gt;&lt;div&gt;Training &lt;br&gt;&lt;/div&gt;" style="rounded=1;whiteSpace=wrap;html=1;fontSize=12;glass=0;strokeWidth=1;shadow=0;fillColor=#f8cecc;strokeColor=#b85450;" parent="WIyWlLk6GJQsqaUBKTNV-1" vertex="1">
          <mxGeometry x="270" y="410" width="120" height="40" as="geometry" />
        </mxCell>
        <mxCell id="SXRWceZyZXSWCd43gUxl-17" value="" style="edgeStyle=orthogonalEdgeStyle;rounded=0;orthogonalLoop=1;jettySize=auto;html=1;" parent="WIyWlLk6GJQsqaUBKTNV-1" source="WIyWlLk6GJQsqaUBKTNV-12" target="SXRWceZyZXSWCd43gUxl-16" edge="1">
          <mxGeometry relative="1" as="geometry" />
        </mxCell>
        <mxCell id="SXRWceZyZXSWCd43gUxl-19" value="" style="edgeStyle=orthogonalEdgeStyle;rounded=0;orthogonalLoop=1;jettySize=auto;html=1;" parent="WIyWlLk6GJQsqaUBKTNV-1" source="WIyWlLk6GJQsqaUBKTNV-12" target="SXRWceZyZXSWCd43gUxl-18" edge="1">
          <mxGeometry relative="1" as="geometry" />
        </mxCell>
        <mxCell id="SXRWceZyZXSWCd43gUxl-21" value="" style="edgeStyle=orthogonalEdgeStyle;rounded=0;orthogonalLoop=1;jettySize=auto;html=1;" parent="WIyWlLk6GJQsqaUBKTNV-1" source="WIyWlLk6GJQsqaUBKTNV-12" target="SXRWceZyZXSWCd43gUxl-16" edge="1">
          <mxGeometry relative="1" as="geometry" />
        </mxCell>
        <mxCell id="SXRWceZyZXSWCd43gUxl-22" style="edgeStyle=orthogonalEdgeStyle;rounded=0;orthogonalLoop=1;jettySize=auto;html=1;exitX=1;exitY=0.5;exitDx=0;exitDy=0;exitPerimeter=0;entryX=0.5;entryY=1;entryDx=0;entryDy=0;" parent="WIyWlLk6GJQsqaUBKTNV-1" source="WIyWlLk6GJQsqaUBKTNV-12" target="SXRWceZyZXSWCd43gUxl-23" edge="1">
          <mxGeometry relative="1" as="geometry">
            <mxPoint x="640" y="310" as="targetPoint" />
            <Array as="points">
              <mxPoint x="660" y="400" />
              <mxPoint x="660" y="280" />
            </Array>
          </mxGeometry>
        </mxCell>
        <mxCell id="WIyWlLk6GJQsqaUBKTNV-12" value="Category" style="rounded=1;whiteSpace=wrap;html=1;fontSize=12;glass=0;strokeWidth=2;shadow=0;shape=mxgraph.flowchart.decision;fillColor=#e1d5e7;strokeColor=#9673a6;" parent="WIyWlLk6GJQsqaUBKTNV-1" vertex="1">
          <mxGeometry x="495" y="360" width="110" height="80" as="geometry" />
        </mxCell>
        <mxCell id="SXRWceZyZXSWCd43gUxl-9" value="Clear &lt;span style=&quot;white-space: pre;&quot;&gt;&#x9;&lt;/span&gt;" style="whiteSpace=wrap;html=1;verticalAlign=top;strokeWidth=2;labelBackgroundColor=default;spacingTop=8;fillColor=#dae8fc;strokeColor=#6c8ebf;" parent="WIyWlLk6GJQsqaUBKTNV-1" vertex="1">
          <mxGeometry x="350" y="36" width="120" height="60" as="geometry" />
        </mxCell>
        <mxCell id="XPrcIIM_zlbopIxsgHZ1-1" value="" style="edgeStyle=orthogonalEdgeStyle;rounded=0;orthogonalLoop=1;jettySize=auto;html=1;" parent="WIyWlLk6GJQsqaUBKTNV-1" source="SXRWceZyZXSWCd43gUxl-11" target="XPrcIIM_zlbopIxsgHZ1-0" edge="1">
          <mxGeometry relative="1" as="geometry" />
        </mxCell>
        <mxCell id="SXRWceZyZXSWCd43gUxl-11" value="Green" style="whiteSpace=wrap;html=1;verticalAlign=top;strokeWidth=2;labelBackgroundColor=default;spacingTop=8;fillColor=#dae8fc;strokeColor=#6c8ebf;" parent="WIyWlLk6GJQsqaUBKTNV-1" vertex="1">
          <mxGeometry x="490" y="-90" width="120" height="60" as="geometry" />
        </mxCell>
        <mxCell id="SXRWceZyZXSWCd43gUxl-13" value="Amber " style="whiteSpace=wrap;html=1;verticalAlign=top;strokeWidth=2;labelBackgroundColor=default;spacingTop=8;fillColor=#dae8fc;strokeColor=#6c8ebf;" parent="WIyWlLk6GJQsqaUBKTNV-1" vertex="1">
          <mxGeometry x="634" y="36" width="120" height="60" as="geometry" />
        </mxCell>
        <mxCell id="XPrcIIM_zlbopIxsgHZ1-26" value="" style="edgeStyle=orthogonalEdgeStyle;rounded=0;orthogonalLoop=1;jettySize=auto;html=1;" parent="WIyWlLk6GJQsqaUBKTNV-1" source="SXRWceZyZXSWCd43gUxl-16" target="XPrcIIM_zlbopIxsgHZ1-25" edge="1">
          <mxGeometry relative="1" as="geometry" />
        </mxCell>
        <mxCell id="SXRWceZyZXSWCd43gUxl-16" value="Account Compromise " style="whiteSpace=wrap;html=1;rounded=1;glass=0;strokeWidth=2;shadow=0;" parent="WIyWlLk6GJQsqaUBKTNV-1" vertex="1">
          <mxGeometry x="650" y="530" width="120" height="60" as="geometry" />
        </mxCell>
        <mxCell id="XPrcIIM_zlbopIxsgHZ1-28" value="" style="edgeStyle=orthogonalEdgeStyle;rounded=0;orthogonalLoop=1;jettySize=auto;html=1;" parent="WIyWlLk6GJQsqaUBKTNV-1" source="SXRWceZyZXSWCd43gUxl-18" target="XPrcIIM_zlbopIxsgHZ1-27" edge="1">
          <mxGeometry relative="1" as="geometry" />
        </mxCell>
        <mxCell id="SXRWceZyZXSWCd43gUxl-18" value="Vulnerability exploit " style="whiteSpace=wrap;html=1;rounded=1;glass=0;strokeWidth=2;shadow=0;" parent="WIyWlLk6GJQsqaUBKTNV-1" vertex="1">
          <mxGeometry x="490" y="530" width="120" height="60" as="geometry" />
        </mxCell>
        <mxCell id="SXRWceZyZXSWCd43gUxl-32" value="" style="edgeStyle=orthogonalEdgeStyle;rounded=0;orthogonalLoop=1;jettySize=auto;html=1;" parent="WIyWlLk6GJQsqaUBKTNV-1" source="SXRWceZyZXSWCd43gUxl-23" target="SXRWceZyZXSWCd43gUxl-31" edge="1">
          <mxGeometry relative="1" as="geometry">
            <Array as="points">
              <mxPoint x="730" y="250" />
              <mxPoint x="730" y="202" />
            </Array>
          </mxGeometry>
        </mxCell>
        <mxCell id="SXRWceZyZXSWCd43gUxl-23" value="Incident Response " style="shape=parallelogram;html=1;strokeWidth=2;perimeter=parallelogramPerimeter;whiteSpace=wrap;rounded=1;arcSize=12;size=0.23;" parent="WIyWlLk6GJQsqaUBKTNV-1" vertex="1">
          <mxGeometry x="590" y="220" width="100" height="60" as="geometry" />
        </mxCell>
        <mxCell id="SXRWceZyZXSWCd43gUxl-31" value="Informational " style="whiteSpace=wrap;html=1;strokeWidth=2;rounded=1;arcSize=12;" parent="WIyWlLk6GJQsqaUBKTNV-1" vertex="1">
          <mxGeometry x="800" y="172" width="120" height="60" as="geometry" />
        </mxCell>
        <mxCell id="SXRWceZyZXSWCd43gUxl-35" value="" style="edgeStyle=elbowEdgeStyle;elbow=horizontal;endArrow=classic;html=1;curved=0;rounded=0;endSize=8;startSize=8;" parent="WIyWlLk6GJQsqaUBKTNV-1" edge="1">
          <mxGeometry width="50" height="50" relative="1" as="geometry">
            <mxPoint x="730" y="250" as="sourcePoint" />
            <mxPoint x="800" y="280" as="targetPoint" />
            <Array as="points">
              <mxPoint x="730" y="270" />
            </Array>
          </mxGeometry>
        </mxCell>
        <mxCell id="SXRWceZyZXSWCd43gUxl-36" value="Warning " style="whiteSpace=wrap;html=1;strokeWidth=2;rounded=1;arcSize=12;" parent="WIyWlLk6GJQsqaUBKTNV-1" vertex="1">
          <mxGeometry x="800" y="258" width="120" height="60" as="geometry" />
        </mxCell>
        <mxCell id="SXRWceZyZXSWCd43gUxl-37" value="Severe" style="whiteSpace=wrap;html=1;strokeWidth=2;rounded=1;arcSize=12;" parent="WIyWlLk6GJQsqaUBKTNV-1" vertex="1">
          <mxGeometry x="800" y="350" width="120" height="60" as="geometry" />
        </mxCell>
        <mxCell id="SXRWceZyZXSWCd43gUxl-38" value="" style="edgeStyle=elbowEdgeStyle;elbow=horizontal;endArrow=classic;html=1;curved=0;rounded=0;endSize=8;startSize=8;entryX=0;entryY=0.5;entryDx=0;entryDy=0;" parent="WIyWlLk6GJQsqaUBKTNV-1" target="SXRWceZyZXSWCd43gUxl-37" edge="1">
          <mxGeometry width="50" height="50" relative="1" as="geometry">
            <mxPoint x="730" y="250" as="sourcePoint" />
            <mxPoint x="780" y="360" as="targetPoint" />
            <Array as="points">
              <mxPoint x="730" y="310" />
            </Array>
          </mxGeometry>
        </mxCell>
        <mxCell id="XPrcIIM_zlbopIxsgHZ1-2" style="edgeStyle=orthogonalEdgeStyle;rounded=0;orthogonalLoop=1;jettySize=auto;html=1;exitX=0.75;exitY=0;exitDx=0;exitDy=0;exitPerimeter=0;entryX=0.25;entryY=0;entryDx=0;entryDy=0;" parent="WIyWlLk6GJQsqaUBKTNV-1" source="XPrcIIM_zlbopIxsgHZ1-0" target="XPrcIIM_zlbopIxsgHZ1-14" edge="1">
          <mxGeometry relative="1" as="geometry">
            <mxPoint x="838" y="-228.01999999999998" as="targetPoint" />
            <Array as="points">
              <mxPoint x="575" y="-250" />
              <mxPoint x="838" y="-250" />
              <mxPoint x="838" y="-230" />
            </Array>
          </mxGeometry>
        </mxCell>
        <mxCell id="XPrcIIM_zlbopIxsgHZ1-3" value="Malware IP " style="edgeLabel;html=1;align=center;verticalAlign=middle;resizable=0;points=[];" parent="XPrcIIM_zlbopIxsgHZ1-2" vertex="1" connectable="0">
          <mxGeometry x="0.1652" y="-3" relative="1" as="geometry">
            <mxPoint as="offset" />
          </mxGeometry>
        </mxCell>
        <mxCell id="XPrcIIM_zlbopIxsgHZ1-4" style="edgeStyle=orthogonalEdgeStyle;rounded=0;orthogonalLoop=1;jettySize=auto;html=1;exitX=1;exitY=0.25;exitDx=0;exitDy=0;exitPerimeter=0;entryX=0;entryY=0;entryDx=0;entryDy=0;" parent="WIyWlLk6GJQsqaUBKTNV-1" source="XPrcIIM_zlbopIxsgHZ1-0" target="XPrcIIM_zlbopIxsgHZ1-14" edge="1">
          <mxGeometry relative="1" as="geometry">
            <mxPoint x="820.6299212598426" y="-211.8110236220473" as="targetPoint" />
          </mxGeometry>
        </mxCell>
        <mxCell id="XPrcIIM_zlbopIxsgHZ1-7" value="Malware Domains" style="edgeLabel;html=1;align=center;verticalAlign=middle;resizable=0;points=[];" parent="XPrcIIM_zlbopIxsgHZ1-4" vertex="1" connectable="0">
          <mxGeometry x="-0.1305" relative="1" as="geometry">
            <mxPoint as="offset" />
          </mxGeometry>
        </mxCell>
        <mxCell id="XPrcIIM_zlbopIxsgHZ1-5" style="edgeStyle=orthogonalEdgeStyle;rounded=0;orthogonalLoop=1;jettySize=auto;html=1;exitX=1;exitY=0.5;exitDx=0;exitDy=0;exitPerimeter=0;entryX=0;entryY=0.5;entryDx=0;entryDy=0;" parent="WIyWlLk6GJQsqaUBKTNV-1" source="XPrcIIM_zlbopIxsgHZ1-0" target="XPrcIIM_zlbopIxsgHZ1-14" edge="1">
          <mxGeometry relative="1" as="geometry">
            <mxPoint x="810" y="-200" as="targetPoint" />
          </mxGeometry>
        </mxCell>
        <mxCell id="XPrcIIM_zlbopIxsgHZ1-8" value="Member submitted Domains" style="edgeLabel;html=1;align=center;verticalAlign=middle;resizable=0;points=[];" parent="XPrcIIM_zlbopIxsgHZ1-5" vertex="1" connectable="0">
          <mxGeometry x="-0.3292" y="-2" relative="1" as="geometry">
            <mxPoint x="-1" y="-2" as="offset" />
          </mxGeometry>
        </mxCell>
        <mxCell id="XPrcIIM_zlbopIxsgHZ1-10" style="edgeStyle=orthogonalEdgeStyle;rounded=0;orthogonalLoop=1;jettySize=auto;html=1;exitX=1;exitY=0.75;exitDx=0;exitDy=0;exitPerimeter=0;entryX=0;entryY=0.75;entryDx=0;entryDy=0;" parent="WIyWlLk6GJQsqaUBKTNV-1" source="XPrcIIM_zlbopIxsgHZ1-0" target="XPrcIIM_zlbopIxsgHZ1-14" edge="1">
          <mxGeometry relative="1" as="geometry">
            <mxPoint x="820.6299212598426" y="-188.1889763779527" as="targetPoint" />
          </mxGeometry>
        </mxCell>
        <mxCell id="XPrcIIM_zlbopIxsgHZ1-11" value="Unblock List " style="edgeLabel;html=1;align=center;verticalAlign=middle;resizable=0;points=[];" parent="XPrcIIM_zlbopIxsgHZ1-10" vertex="1" connectable="0">
          <mxGeometry x="-0.3022" y="-1" relative="1" as="geometry">
            <mxPoint as="offset" />
          </mxGeometry>
        </mxCell>
        <mxCell id="XPrcIIM_zlbopIxsgHZ1-0" value="IP&amp;amp; Domains " style="strokeWidth=2;html=1;shape=mxgraph.flowchart.document2;whiteSpace=wrap;size=0.25;" parent="WIyWlLk6GJQsqaUBKTNV-1" vertex="1">
          <mxGeometry x="500" y="-230" width="100" height="60" as="geometry" />
        </mxCell>
        <mxCell id="XPrcIIM_zlbopIxsgHZ1-14" value="Cisco" style="shape=manualInput;html=1;strokeWidth=2;whiteSpace=wrap;rounded=1;arcSize=11;size=26;" parent="WIyWlLk6GJQsqaUBKTNV-1" vertex="1">
          <mxGeometry x="850" y="-210" width="100" height="60" as="geometry" />
        </mxCell>
        <mxCell id="XPrcIIM_zlbopIxsgHZ1-15" value="" style="shape=curlyBracket;whiteSpace=wrap;html=1;rounded=1;labelPosition=left;verticalLabelPosition=middle;align=right;verticalAlign=middle;" parent="WIyWlLk6GJQsqaUBKTNV-1" vertex="1">
          <mxGeometry x="760" y="6" width="20" height="120" as="geometry" />
        </mxCell>
        <mxCell id="XPrcIIM_zlbopIxsgHZ1-30" value="" style="edgeStyle=orthogonalEdgeStyle;rounded=0;orthogonalLoop=1;jettySize=auto;html=1;" parent="WIyWlLk6GJQsqaUBKTNV-1" source="XPrcIIM_zlbopIxsgHZ1-18" target="XPrcIIM_zlbopIxsgHZ1-29" edge="1">
          <mxGeometry relative="1" as="geometry" />
        </mxCell>
        <mxCell id="XPrcIIM_zlbopIxsgHZ1-18" value="Host " style="strokeWidth=2;html=1;shape=mxgraph.flowchart.delay;whiteSpace=wrap;" parent="WIyWlLk6GJQsqaUBKTNV-1" vertex="1">
          <mxGeometry x="780" y="-20" width="100" height="60" as="geometry" />
        </mxCell>
        <mxCell id="XPrcIIM_zlbopIxsgHZ1-32" value="" style="edgeStyle=orthogonalEdgeStyle;rounded=0;orthogonalLoop=1;jettySize=auto;html=1;" parent="WIyWlLk6GJQsqaUBKTNV-1" source="XPrcIIM_zlbopIxsgHZ1-24" target="XPrcIIM_zlbopIxsgHZ1-31" edge="1">
          <mxGeometry relative="1" as="geometry" />
        </mxCell>
        <mxCell id="XPrcIIM_zlbopIxsgHZ1-24" value="Network" style="strokeWidth=2;html=1;shape=mxgraph.flowchart.delay;whiteSpace=wrap;" parent="WIyWlLk6GJQsqaUBKTNV-1" vertex="1">
          <mxGeometry x="780" y="90" width="100" height="60" as="geometry" />
        </mxCell>
        <mxCell id="XPrcIIM_zlbopIxsgHZ1-25" value="contact users" style="verticalLabelPosition=bottom;verticalAlign=top;html=1;shape=process;whiteSpace=wrap;rounded=1;size=0.14;arcSize=6;fillColor=#f8cecc;strokeColor=#b85450;" parent="WIyWlLk6GJQsqaUBKTNV-1" vertex="1">
          <mxGeometry x="660" y="630" width="100" height="60" as="geometry" />
        </mxCell>
        <mxCell id="XPrcIIM_zlbopIxsgHZ1-27" value="contact vuln" style="verticalLabelPosition=bottom;verticalAlign=top;html=1;shape=process;whiteSpace=wrap;rounded=1;size=0.14;arcSize=6;fillColor=#f8cecc;strokeColor=#b85450;" parent="WIyWlLk6GJQsqaUBKTNV-1" vertex="1">
          <mxGeometry x="500" y="630" width="100" height="60" as="geometry" />
        </mxCell>
        <mxCell id="XPrcIIM_zlbopIxsgHZ1-29" value="CS Log analysis " style="shape=document;whiteSpace=wrap;html=1;boundedLbl=1;strokeWidth=2;" parent="WIyWlLk6GJQsqaUBKTNV-1" vertex="1">
          <mxGeometry x="950" y="-30" width="120" height="80" as="geometry" />
        </mxCell>
        <mxCell id="XPrcIIM_zlbopIxsgHZ1-31" value="ELK Log analysis" style="shape=document;whiteSpace=wrap;html=1;boundedLbl=1;strokeWidth=2;" parent="WIyWlLk6GJQsqaUBKTNV-1" vertex="1">
          <mxGeometry x="950" y="80" width="120" height="80" as="geometry" />
        </mxCell>
        <mxCell id="QJSwrV6XrAiNGHjWvSwj-0" value="Process" style="rounded=0;whiteSpace=wrap;html=1;fillColor=#e1d5e7;strokeColor=#9673a6;" vertex="1" parent="WIyWlLk6GJQsqaUBKTNV-1">
          <mxGeometry y="36" width="50" height="20" as="geometry" />
        </mxCell>
        <mxCell id="QJSwrV6XrAiNGHjWvSwj-2" value="Start" style="rounded=0;whiteSpace=wrap;html=1;fillColor=#d5e8d4;strokeColor=#82b366;" vertex="1" parent="WIyWlLk6GJQsqaUBKTNV-1">
          <mxGeometry width="50" height="20" as="geometry" />
        </mxCell>
        <mxCell id="QJSwrV6XrAiNGHjWvSwj-5" style="edgeStyle=orthogonalEdgeStyle;rounded=0;orthogonalLoop=1;jettySize=auto;html=1;exitX=0.5;exitY=1;exitDx=0;exitDy=0;" edge="1" parent="WIyWlLk6GJQsqaUBKTNV-1" source="QJSwrV6XrAiNGHjWvSwj-3">
          <mxGeometry relative="1" as="geometry">
            <mxPoint x="30" y="120" as="targetPoint" />
          </mxGeometry>
        </mxCell>
        <mxCell id="QJSwrV6XrAiNGHjWvSwj-3" value="End" style="rounded=0;whiteSpace=wrap;html=1;fillColor=#f8cecc;strokeColor=#b85450;" vertex="1" parent="WIyWlLk6GJQsqaUBKTNV-1">
          <mxGeometry y="112" width="50" height="20" as="geometry" />
        </mxCell>
        <mxCell id="QJSwrV6XrAiNGHjWvSwj-4" value="Decision" style="rounded=0;whiteSpace=wrap;html=1;fillColor=#dae8fc;strokeColor=#6c8ebf;" vertex="1" parent="WIyWlLk6GJQsqaUBKTNV-1">
          <mxGeometry y="76" width="50" height="20" as="geometry" />
        </mxCell>
        <mxCell id="QJSwrV6XrAiNGHjWvSwj-6" value="Legend" style="swimlane;whiteSpace=wrap;html=1;fillColor=#d0cee2;strokeColor=#56517e;" vertex="1" parent="WIyWlLk6GJQsqaUBKTNV-1">
          <mxGeometry y="-50" width="140" height="280" as="geometry">
            <mxRectangle y="-50" width="80" height="30" as="alternateBounds" />
          </mxGeometry>
        </mxCell>
      </root>
    </mxGraphModel>
  </diagram>
</mxfile>
